# XSI Wavefront OBJ Export v3.0
# File Created: Wed Nov 22 10:09:29 2006
# XSI Version: 5.0.2005.1013-1
mtllib error.mtl

o error
# Hierarchy (from self to top father)
g error

#begin 64 vertices
v -0.300797 0.710095 0.065141
v -0.434768 0.808250 0.079271
v -0.395458 0.510410 0.163054
v -0.527530 0.581128 0.236118
v -0.427896 0.709010 0.292441
v -0.295824 0.638292 0.219377
v -0.337865 0.410430 0.288179
v -0.447930 0.442946 0.409054
v -0.348296 0.570828 0.465377
v -0.238231 0.538312 0.344501
v -0.236419 0.297496 0.365144
v -0.293070 0.177867 0.736978
v -0.165791 0.370243 0.597962
v -0.136785 0.425378 0.421466
v 0.013032 0.802428 -0.699661
v -0.086602 0.674545 -0.755983
v 0.291952 0.598075 -0.729079
v 0.164673 0.405699 -0.590062
v 0.031929 0.100889 0.336840
v 0.012259 0.038914 0.512351
v 0.111894 0.166796 0.568674
v 0.131563 0.228771 0.393163
v 0.157977 0.047149 0.235881
v 0.237377 -0.059148 0.336773
v 0.337011 0.068735 0.393096
v 0.257611 0.175031 0.292204
v 0.252391 0.035759 0.094724
v 0.367866 -0.074889 0.141679
v 0.467500 0.052994 0.198002
v 0.352025 0.163642 0.151047
v 0.300797 0.068455 -0.065141
v 0.434768 -0.029700 -0.079271
v 0.534402 0.098183 -0.022949
v 0.400431 0.196337 -0.008819
v 0.295824 0.140259 -0.219377
v 0.427896 0.069540 -0.292441
v 0.527530 0.197423 -0.236118
v 0.395458 0.268141 -0.163054
v 0.238231 0.240238 -0.344501
v 0.348296 0.207722 -0.465377
v 0.447930 0.335605 -0.409054
v 0.337865 0.368120 -0.288179
v 0.136785 0.353173 -0.421466
v 0.192318 0.470193 -0.785402
v 0.264307 0.533582 -0.533739
v 0.236419 0.481055 -0.365144
v 0.085536 0.101359 0.763877
v -0.014098 -0.026523 0.707555
v -0.193436 0.305749 0.793301
v -0.265425 0.242361 0.541639
v -0.131563 0.549779 -0.393163
v -0.112959 0.609108 -0.560780
v -0.013325 0.736990 -0.504457
v -0.031929 0.677661 -0.336840
v -0.257611 0.603520 -0.292204
v -0.337011 0.709816 -0.393096
v -0.237377 0.837698 -0.336773
v -0.157977 0.731402 -0.235881
v -0.352025 0.614909 -0.151047
v -0.467500 0.725557 -0.198002
v -0.367866 0.853439 -0.141679
v -0.252391 0.742791 -0.094724
v -0.400431 0.582213 0.008819
v -0.534402 0.680368 0.022949
#end 64 vertices

#begin 264 normals
vn 0.692795 -0.663834 0.281708
vn 0.803762 -0.588880 -0.084774
vn 0.803762 -0.588880 -0.084774
vn -0.580554 -0.745152 -0.328185
vn -0.580554 -0.745152 -0.328185
vn -0.580554 -0.745152 -0.328185
vn -0.580554 -0.745152 -0.328185
vn -0.792363 0.424275 0.438351
vn -0.656605 0.190106 0.729884
vn -0.656605 0.190106 0.729884
vn -0.792363 0.424275 0.438351
vn 0.580554 0.745152 0.328185
vn 0.580554 0.745152 0.328185
vn 0.580554 0.745152 0.328185
vn 0.580554 0.745152 0.328185
vn 0.692795 -0.663834 0.281708
vn 0.476357 -0.637725 0.605303
vn 0.692795 -0.663834 0.281708
vn 0.692795 -0.663834 0.281708
vn 0.476357 -0.637725 0.605303
vn 0.338379 -0.587413 0.735150
vn -0.580554 -0.745152 -0.328185
vn -0.580554 -0.745152 -0.328185
vn -0.580554 -0.745152 -0.328185
vn -0.580554 -0.745152 -0.328185
vn -0.656605 0.190106 0.729884
vn -0.768619 0.368550 0.522873
vn -0.768619 0.368550 0.522873
vn -0.656605 0.190106 0.729884
vn 0.580554 0.745152 0.328185
vn 0.580554 0.745152 0.328185
vn 0.580554 0.745152 0.328185
vn 0.580554 0.745152 0.328185
vn 0.476357 -0.637725 0.605303
vn 0.476357 -0.637725 0.605303
vn 0.338379 -0.587413 0.735150
vn -0.803762 0.588880 0.084774
vn -0.803762 0.588880 0.084774
vn -0.803762 0.588880 0.084774
vn 0.580554 0.745152 0.328185
vn 0.580554 0.745152 0.328185
vn 0.580554 0.745152 0.328185
vn 0.580554 0.745152 0.328185
vn -0.580554 -0.745152 -0.328185
vn -0.580554 -0.745152 -0.328185
vn -0.580554 -0.745152 -0.328185
vn -0.580554 -0.745152 -0.328185
vn 0.580554 0.745152 0.328185
vn 0.580554 0.745152 0.328185
vn 0.580554 0.745152 0.328185
vn 0.580554 0.745152 0.328185
vn -0.803762 0.588880 0.084774
vn -0.580554 -0.745152 -0.328185
vn -0.580554 -0.745152 -0.328185
vn -0.580554 -0.745152 -0.328185
vn -0.580554 -0.745152 -0.328185
vn -0.660334 0.195078 0.725192
vn 0.580554 0.745152 0.328185
vn 0.580554 0.745152 0.328185
vn 0.580554 0.745152 0.328185
vn 0.580554 0.745152 0.328185
vn 0.580554 0.745152 0.328185
vn 0.580554 0.745152 0.328185
vn 0.580554 0.745152 0.328185
vn 0.580554 0.745152 0.328185
vn 0.130092 0.312999 -0.940802
vn 0.130092 0.312999 -0.940802
vn 0.130092 0.312999 -0.940802
vn 0.130092 0.312999 -0.940802
vn -0.554714 0.066916 0.829346
vn -0.554714 0.066916 0.829346
vn -0.660334 0.195078 0.725192
vn -0.792363 0.424275 0.438351
vn -0.660334 0.195078 0.725192
vn -0.660334 0.195078 0.725192
vn -0.580554 -0.745152 -0.328185
vn -0.580554 -0.745152 -0.328185
vn -0.580554 -0.745152 -0.328185
vn -0.580554 -0.745152 -0.328185
vn 0.644627 -0.666872 0.373815
vn 0.471200 -0.636186 0.610932
vn 0.471200 -0.636186 0.610932
vn 0.644627 -0.666872 0.373815
vn 0.580554 0.745152 0.328185
vn 0.580554 0.745152 0.328185
vn 0.580554 0.745152 0.328185
vn 0.580554 0.745152 0.328185
vn -0.792363 0.424275 0.438351
vn -0.803762 0.588880 0.084774
vn -0.792363 0.424275 0.438351
vn -0.792363 0.424275 0.438351
vn -0.803762 0.588880 0.084774
vn -0.692795 0.663834 -0.281708
vn -0.580554 -0.745152 -0.328185
vn -0.580554 -0.745152 -0.328185
vn -0.580554 -0.745152 -0.328185
vn -0.580554 -0.745152 -0.328185
vn 0.471200 -0.636186 0.610932
vn 0.692795 -0.663834 0.281708
vn 0.692795 -0.663834 0.281708
vn 0.471200 -0.636186 0.610932
vn 0.580554 0.745152 0.328185
vn 0.580554 0.745152 0.328185
vn 0.580554 0.745152 0.328185
vn 0.580554 0.745152 0.328185
vn -0.803762 0.588880 0.084774
vn -0.803762 0.588880 0.084774
vn -0.692795 0.663834 -0.281708
vn -0.476357 0.637725 -0.605303
vn -0.692795 0.663834 -0.281708
vn -0.692795 0.663834 -0.281708
vn -0.580554 -0.745152 -0.328185
vn -0.580554 -0.745152 -0.328185
vn -0.580554 -0.745152 -0.328185
vn -0.580554 -0.745152 -0.328185
vn 0.692795 -0.663834 0.281708
vn 0.803762 -0.588880 -0.084774
vn 0.803762 -0.588880 -0.084774
vn 0.692795 -0.663834 0.281708
vn 0.580554 0.745152 0.328185
vn 0.580554 0.745152 0.328185
vn 0.580554 0.745152 0.328185
vn 0.580554 0.745152 0.328185
vn -0.476357 0.637725 -0.605303
vn -0.338379 0.587413 -0.735150
vn -0.476357 0.637725 -0.605303
vn -0.476357 0.637725 -0.605303
vn -0.338379 0.587413 -0.735150
vn -0.580554 -0.745152 -0.328185
vn -0.580554 -0.745152 -0.328185
vn -0.580554 -0.745152 -0.328185
vn -0.580554 -0.745152 -0.328185
vn -0.580554 -0.745152 -0.328185
vn 0.803762 -0.588880 -0.084774
vn 0.792363 -0.424275 -0.438351
vn 0.792363 -0.424275 -0.438351
vn 0.803762 -0.588880 -0.084774
vn 0.580554 0.745152 0.328185
vn 0.580554 0.745152 0.328185
vn 0.580554 0.745152 0.328185
vn 0.580554 0.745152 0.328185
vn -0.580554 -0.745152 -0.328185
vn -0.580554 -0.745152 -0.328185
vn -0.580554 -0.745152 -0.328185
vn 0.803762 -0.588880 -0.084774
vn 0.803762 -0.588880 -0.084774
vn 0.803762 -0.588880 -0.084774
vn -0.580554 -0.745152 -0.328185
vn -0.580554 -0.745152 -0.328185
vn -0.580554 -0.745152 -0.328185
vn -0.580554 -0.745152 -0.328185
vn 0.792363 -0.424275 -0.438351
vn 0.650836 -0.182496 -0.736958
vn 0.650836 -0.182496 -0.736958
vn 0.792363 -0.424275 -0.438351
vn 0.580554 0.745152 0.328185
vn 0.580554 0.745152 0.328185
vn 0.580554 0.745152 0.328185
vn 0.580554 0.745152 0.328185
vn 0.803762 -0.588880 -0.084774
vn 0.660334 -0.195078 -0.725192
vn 0.554714 -0.066916 -0.829346
vn 0.554714 -0.066916 -0.829346
vn 0.660334 -0.195078 -0.725192
vn 0.792363 -0.424275 -0.438351
vn -0.580554 -0.745152 -0.328185
vn -0.580554 -0.745152 -0.328185
vn -0.580554 -0.745152 -0.328185
vn -0.580554 -0.745152 -0.328185
vn 0.650836 -0.182496 -0.736958
vn 0.765372 -0.361919 -0.532184
vn 0.765372 -0.361919 -0.532184
vn 0.650836 -0.182496 -0.736958
vn 0.580554 0.745152 0.328185
vn 0.580554 0.745152 0.328185
vn 0.580554 0.745152 0.328185
vn 0.580554 0.745152 0.328185
vn 0.660334 -0.195078 -0.725192
vn 0.660334 -0.195078 -0.725192
vn 0.792363 -0.424275 -0.438351
vn 0.803762 -0.588880 -0.084774
vn 0.792363 -0.424275 -0.438351
vn 0.792363 -0.424275 -0.438351
vn -0.580554 -0.745152 -0.328185
vn -0.580554 -0.745152 -0.328185
vn -0.580554 -0.745152 -0.328185
vn -0.580554 -0.745152 -0.328185
vn 0.580554 0.745152 0.328185
vn 0.580554 0.745152 0.328185
vn 0.580554 0.745152 0.328185
vn 0.580554 0.745152 0.328185
vn -0.130092 -0.312999 0.940802
vn -0.130092 -0.312999 0.940802
vn -0.130092 -0.312999 0.940802
vn -0.130092 -0.312999 0.940802
vn 0.803762 -0.588880 -0.084774
vn 0.580554 0.745152 0.328185
vn 0.580554 0.745152 0.328185
vn 0.580554 0.745152 0.328185
vn 0.580554 0.745152 0.328185
vn -0.803762 0.588880 0.084774
vn -0.580554 -0.745152 -0.328185
vn -0.580554 -0.745152 -0.328185
vn -0.580554 -0.745152 -0.328185
vn -0.580554 -0.745152 -0.328185
vn 0.803254 -0.590084 -0.081143
vn 0.803254 -0.590084 -0.081143
vn 0.765372 -0.361919 -0.532184
vn 0.765372 -0.361919 -0.532184
vn -0.804258 0.587668 0.088405
vn -0.804258 0.587668 0.088405
vn -0.638671 0.666760 -0.384097
vn -0.638671 0.666760 -0.384097
vn -0.792363 0.424275 0.438351
vn -0.792363 0.424275 0.438351
vn -0.803762 0.588880 0.084774
vn -0.580554 -0.745152 -0.328185
vn -0.580554 -0.745152 -0.328185
vn -0.580554 -0.745152 -0.328185
vn -0.580554 -0.745152 -0.328185
vn -0.580554 -0.745152 -0.328185
vn -0.580554 -0.745152 -0.328185
vn -0.580554 -0.745152 -0.328185
vn -0.638671 0.666760 -0.384097
vn -0.463276 0.633764 -0.619450
vn -0.463276 0.633764 -0.619450
vn -0.638671 0.666760 -0.384097
vn 0.580554 0.745152 0.328185
vn 0.580554 0.745152 0.328185
vn 0.580554 0.745152 0.328185
vn 0.580554 0.745152 0.328185
vn -0.580554 -0.745152 -0.328185
vn 0.580554 0.745152 0.328185
vn 0.580554 0.745152 0.328185
vn 0.580554 0.745152 0.328185
vn 0.580554 0.745152 0.328185
vn -0.692795 0.663834 -0.281708
vn -0.580554 -0.745152 -0.328185
vn -0.580554 -0.745152 -0.328185
vn -0.580554 -0.745152 -0.328185
vn -0.580554 -0.745152 -0.328185
vn -0.463276 0.633764 -0.619450
vn -0.692795 0.663834 -0.281708
vn -0.692795 0.663834 -0.281708
vn -0.463276 0.633764 -0.619450
vn 0.580554 0.745152 0.328185
vn 0.580554 0.745152 0.328185
vn 0.580554 0.745152 0.328185
vn 0.580554 0.745152 0.328185
vn -0.803762 0.588880 0.084774
vn -0.803762 0.588880 0.084774
vn -0.692795 0.663834 -0.281708
vn -0.580554 -0.745152 -0.328185
vn -0.580554 -0.745152 -0.328185
vn -0.580554 -0.745152 -0.328185
vn -0.580554 -0.745152 -0.328185
vn -0.803254 0.590084 0.081143
vn -0.803254 0.590084 0.081143
vn -0.768619 0.368550 0.522873
vn -0.768619 0.368550 0.522873
vn 0.804258 -0.587668 -0.088405
vn 0.804258 -0.587668 -0.088405
vn 0.644627 -0.666872 0.373815
vn 0.644627 -0.666872 0.373815
#end 264 vertex normals

#begin 66 faces
usemtl error
f 62//16 1//3 63//2 59//1 
usemtl error
f 3//4 7//5 8//6 4//7 
usemtl error
f 4//8 8//9 9//10 5//11 
usemtl error
f 5//12 9//13 10//14 6//15 
usemtl error
f 58//20 62//19 59//18 55//17 
usemtl error
f 54//36 58//35 55//34 51//21 
usemtl error
f 7//22 11//23 50//24 8//25 
usemtl error
f 8//26 50//27 13//28 9//29 
usemtl error
f 9//30 13//31 14//32 10//33 
usemtl error
f 11//52 14//39 54//38 51//37 
usemtl error
f 45//43 17//42 15//41 53//40 
usemtl error
f 52//47 16//46 44//45 18//44 
usemtl error
f 13//51 49//50 47//49 21//48 
usemtl error
f 20//56 48//55 12//54 50//53 
usemtl error
f 42//72 46//71 43//70 39//57 
usemtl error
f 38//88 42//75 39//74 35//73 
usemtl error
f 22//61 46//60 54//59 14//58 
usemtl error
f 45//65 53//64 54//63 46//62 
usemtl error
f 16//69 15//68 17//67 44//66 
usemtl error
f 34//92 38//91 35//90 31//89 
usemtl error
f 30//108 34//107 31//106 27//93 
usemtl error
f 19//76 23//77 24//78 20//79 
usemtl error
f 20//80 24//81 25//82 21//83 
usemtl error
f 21//84 25//85 26//86 22//87 
usemtl error
f 26//124 30//111 27//110 23//109 
usemtl error
f 22//128 26//127 23//126 19//125 
usemtl error
f 23//94 27//95 28//96 24//97 
usemtl error
f 24//98 28//99 29//100 25//101 
usemtl error
f 25//102 29//103 30//104 26//105 
usemtl error
f 43//144 51//143 52//142 18//129 
usemtl error
f 22//160 19//147 43//146 46//145 
usemtl error
f 27//112 31//113 32//114 28//115 
usemtl error
f 28//116 32//117 33//118 29//119 
usemtl error
f 29//120 33//121 34//122 30//123 
usemtl error
f 10//164 14//163 11//162 7//161 
usemtl error
f 6//180 10//179 7//178 3//165 
usemtl error
f 31//130 35//131 36//132 32//133 
usemtl error
f 32//134 36//135 37//136 33//137 
usemtl error
f 33//138 37//139 38//140 34//141 
usemtl error
f 1//196 6//183 3//182 63//181 
usemtl error
f 2//200 5//199 6//198 1//197 
usemtl error
f 35//148 39//149 40//150 36//151 
usemtl error
f 36//152 40//153 41//154 37//155 
usemtl error
f 37//156 41//157 42//158 38//159 
usemtl error
f 64//216 4//215 5//214 2//201 
usemtl error
f 63//232 3//219 4//218 64//217 
usemtl error
f 39//166 43//167 18//168 40//169 
usemtl error
f 40//170 18//171 45//172 41//173 
usemtl error
f 41//174 45//175 46//176 42//177 
usemtl error
f 61//236 2//235 1//234 62//233 
usemtl error
f 60//252 64//251 2//250 61//237 
usemtl error
f 51//187 43//186 19//185 11//184 
usemtl error
f 13//191 21//190 22//189 14//188 
usemtl error
f 48//195 47//194 49//193 12//192 
usemtl error
f 59//256 63//255 64//254 60//253 
usemtl error
f 57//246 61//247 62//248 58//249 
usemtl error
f 11//205 19//204 20//203 50//202 
usemtl error
f 45//209 18//208 44//207 17//206 
usemtl error
f 52//213 53//212 15//211 16//210 
usemtl error
f 56//242 60//243 61//244 57//245 
usemtl error
f 55//238 59//239 60//240 56//241 
usemtl error
f 51//220 55//221 56//222 52//223 
usemtl error
f 52//224 56//225 57//226 53//227 
usemtl error
f 53//228 57//229 58//230 54//231 
usemtl error
f 13//260 50//259 12//258 49//257 
usemtl error
f 20//264 21//263 47//262 48//261 
#end 66 faces
