# XSI Wavefront OBJ Export v3.0
# File Created: Mon Nov 27 16:40:47 2006
# XSI Version: 5.0.2005.1013-1
o polymsh_extracted2
# Hierarchy (from self to top father)
g polymsh_extracted2

#begin 24 vertices
v 0.285911 0.113679 0.059869
v -0.126675 0.012576 -0.248754
v -0.126675 -0.106557 -0.248754
v 0.098956 0.012719 -0.033292
v -0.106852 0.113679 0.059869
v 0.287117 -0.106414 0.211014
v 0.099725 0.012576 0.151507
v -0.013475 0.135055 -0.248754
v 0.099725 0.012576 -0.248754
v 0.099725 -0.106381 0.151507
v 0.099725 -0.106414 0.211014
v -0.106721 0.015205 0.152588
v 0.099725 -0.106414 -0.033121
v -0.126675 -0.106557 0.151507
v -0.126675 0.012576 0.151507
v 0.285911 -0.106414 0.153180
v -0.106983 0.012566 -0.033292
v 0.099725 -0.106557 -0.248754
v 0.285911 0.012719 0.153180
v -0.013475 0.135055 0.151507
v 0.099725 -0.041659 0.211014
v 0.285911 -0.106414 -0.033442
v 0.287117 -0.041659 0.211014
v 0.285911 0.012566 -0.033292
#end 24 vertices

#begin 61 normals
vn 0.999946 0.000000 -0.010428
vn 0.999976 0.000000 -0.006952
vn 0.999783 0.000000 -0.020854
vn 0.999783 0.000000 -0.020854
vn 0.000000 0.000000 1.000000
vn 0.000000 0.000000 1.000000
vn -0.001814 0.400431 0.916325
vn -0.001814 0.400431 0.916325
vn -1.000000 0.000000 0.000000
vn -1.000000 0.000000 0.000000
vn -1.000000 0.000000 0.000000
vn -1.000000 0.000000 0.000000
vn 0.001608 0.682105 0.731253
vn 0.001608 0.682105 0.731253
vn 0.001608 0.682105 0.731253
vn 0.001608 0.682105 0.731253
vn -0.000000 0.677598 -0.735432
vn 1.000000 0.000000 0.000000
vn 0.999976 0.000000 -0.006952
vn 1.000000 0.000000 0.000000
vn -0.001814 0.400431 0.916325
vn -0.001814 0.400431 0.916325
vn -0.003324 0.733850 0.679303
vn 0.000000 0.000000 -1.000000
vn 0.000000 -0.000000 -1.000000
vn 0.000000 -0.000000 -1.000000
vn 0.000000 -0.000000 -1.000000
vn -0.734380 0.678739 0.000000
vn -0.734380 0.678739 0.000000
vn -0.931230 0.364431 0.000000
vn -0.931230 0.364431 0.000000
vn -0.000861 -0.000094 -1.000000
vn -0.000861 -0.000094 -1.000000
vn -0.000861 -0.000094 -1.000000
vn -0.000861 -0.000094 -1.000000
vn -1.000000 0.000000 0.000000
vn -0.931230 0.364431 0.000000
vn -0.931230 0.364431 0.000000
vn -0.003324 0.733850 0.679303
vn 0.000000 0.000000 1.000000
vn 0.000000 0.000000 1.000000
vn 0.000000 0.000000 1.000000
vn 0.000000 0.000000 1.000000
vn 0.000000 -0.000000 -1.000000
vn -1.000000 0.000000 0.000000
vn -0.000000 0.677598 -0.735432
vn -0.000000 0.677598 -0.735432
vn 0.734380 0.678739 -0.000000
vn 0.734380 0.678739 -0.000000
vn 0.734380 0.678739 -0.000000
vn 0.000000 -0.000000 -1.000000
vn 0.000000 0.000000 -1.000000
vn 0.734380 0.678739 -0.000000
vn 0.000000 0.000000 1.000000
vn 0.000000 0.000000 1.000000
vn 0.000000 0.000000 1.000000
vn -0.000000 0.677598 -0.735432
vn 0.999946 0.000000 -0.010428
vn 0.999976 0.000000 -0.006952
vn 1.000000 0.000000 0.000000
vn 1.000000 0.000000 0.000000
#end 61 vertex normals

#begin 16 faces
f 16//1 19//2 23//3 6//4 
f 11//5 6//6 23//7 21//8 
f 7//9 10//10 11//11 21//12 
f 17//57 5//46 1//47 24//17 
f 1//18 19//19 24//20 
f 8//25 9//26 2//27 
f 14//45 15//38 2//37 3//36 
f 20//28 8//29 2//30 15//31 
f 13//32 4//33 24//34 22//35 
f 15//54 7//55 20//56 
f 7//43 15//42 14//41 10//40 
f 22//61 24//60 19//59 16//58 
f 20//50 7//49 9//48 8//53 
f 3//52 2//51 9//44 18//24 
f 19//39 7//23 21//22 23//21 
f 12//16 19//15 1//14 5//13 
#end 16 faces
